# xmcd
#
# Track frame offsets: 
#        150
#        14801
#        30114
#        45693
#        59135
#        75444
#        89259
#
# Disc length: 1381 seconds
#
# Revision: 0
# Processed by: cddbd v1.5.2PL0 Copyright (c) Steve Scherf et al.
# Submitted via: ExactAudioCopyFreeDBPlugin 1.0
#
DISCID=4f056307
DTITLE=Nora Collins - My Radio
DYEAR=2015
DGENRE=Country
TTITLE0=My Radio
TTITLE1=Harley
TTITLE2=Gas Station Rose
TTITLE3=Bad For Me Boy
TTITLE4=Can't Fight The Sunrise
TTITLE5=I'll Be Gone
TTITLE6=Rockin' The Boat (Bonus Track)
EXTD=
EXTT0=
EXTT1=
EXTT2=
EXTT3=
EXTT4=
EXTT5=
EXTT6=
PLAYORDER=
